<svg width="155" height="180" viewBox="0 0 155 180" fill="none" xmlns="http://www.w3.org/2000/svg">
<path opacity="0.25" d="M140.496 155.358C134.102 151.667 125.135 150.392 116.981 151.538L145.915 134.722C149.075 132.883 149.056 129.908 145.878 128.069L79.6535 89.836C76.4705 87.9974 71.3333 87.9974 68.1734 89.836L45.5411 102.988C35.7472 98.6644 21.7355 99.0848 12.8332 104.259C3.93092 109.433 3.23796 117.555 10.7358 123.214L2.37406 128.074C-0.785858 129.912 -0.767379 132.888 2.41102 134.726L68.6353 172.959C71.8184 174.798 76.9555 174.798 80.1154 172.959L98.7007 162.158C96.7512 166.889 98.9733 172.082 105.367 175.773C115.129 181.409 130.924 181.409 140.62 175.773C150.317 170.137 150.257 160.994 140.496 155.358Z" fill="#87AEDD"/>
<path d="M40.6119 113.134C40.3486 116.035 37.6183 118.008 35.156 119.07C32.4719 120.225 29.5245 120.692 26.6094 120.655C23.6389 120.618 20.6037 120.05 17.9242 118.728C15.5866 117.578 13.1058 115.49 13.1105 112.653C13.1058 114.718 13.249 116.428 14.7366 118.04C16.6538 120.119 19.5412 121.237 22.2576 121.796C27.5565 122.891 34.7679 122.359 38.7963 118.28C40.4179 116.64 40.635 114.908 40.6442 112.727C40.6396 112.866 40.6304 113 40.6119 113.134Z" fill="#ADCDFC"/>
<path d="M36.5783 107.049C41.9696 110.163 42.0065 115.212 36.6476 118.326C31.2887 121.44 22.5666 121.44 17.1753 118.326C11.784 115.212 11.7609 110.163 17.1199 107.049C22.4742 103.935 31.187 103.935 36.5783 107.049Z" fill="#E2EDFF"/>
<path d="M29.334 100.756L29.297 112.79L27.1904 114.01L27.2274 101.98L29.334 100.756Z" fill="#C7D8F2"/>
<path d="M27.227 101.98L27.1901 114.01L25.0742 112.79L25.1066 100.756L27.227 101.98Z" fill="#7BAEFF"/>
<path d="M29.3335 100.756L27.2269 101.981L25.1064 100.756L27.2131 99.5322L29.3335 100.756Z" fill="#4DA5DC"/>
<path d="M13.5339 61.7379C13.5339 61.7379 9.21902 62.8883 8.0687 65.4753C6.91838 68.0624 7.2048 87.6225 13.2475 95.6793C19.2901 103.732 30.5069 104.882 33.0939 103.732C35.681 102.581 50.6398 95.1019 51.7901 91.3645C52.9404 87.6271 47.1888 84.749 44.0243 83.3122C40.8598 81.8755 38.8456 79.8613 37.1224 74.6825C35.3946 69.5038 34.5353 60.5876 32.5211 59.1509C30.5069 57.7141 25.6146 55.4089 13.5339 61.7379Z" fill="#3AAEEF"/>
<path d="M39.3262 56.5368C39.3262 56.5368 32.2487 50.6789 30.8074 50.5403C29.0796 50.4063 26.9267 50.993 26.3631 53.4415C25.7995 55.89 27.1069 57.7518 28.4051 58.4632C29.7032 59.1746 41.0956 64.5798 43.1098 64.5705C45.124 64.5613 46.4083 62.8289 45.1009 60.6761C43.7935 58.5233 39.3262 56.5368 39.3262 56.5368Z" fill="#E1E8F2"/>
<path d="M27.088 49.2008C27.088 49.2008 27.0742 49.2932 27.1019 49.4318C27.2082 49.9584 27.5362 51.2982 27.6147 51.8618C27.6886 52.4023 27.1204 53.3724 25.6559 53.414C24.1914 53.4556 21.6783 52.9659 20.7636 51.2612C20.8144 50.9471 20.5511 47.7225 20.2646 46.124L27.088 49.2008Z" fill="#E16B40"/>
<path d="M30.2347 38.5475C29.1768 34.1125 25.504 31.7472 21.5403 32.8837C21.5403 32.8837 17.2162 33.535 15.4699 37.448C13.7283 41.3609 16.7219 44.4331 18.6391 46.3687C19.4475 47.1633 20.0573 47.7731 20.4408 48.1658C20.5794 48.3137 20.718 48.4615 20.8612 48.5955C20.8889 48.6232 20.9028 48.637 20.9028 48.637L20.9074 48.6324C22.2102 49.8105 23.6654 50.4434 24.7325 50.7067C26.5065 51.141 28.5623 50.739 29.6203 49.4963C30.6828 48.249 31.2972 42.9825 30.2347 38.5475Z" fill="#FF8654"/>
<path d="M21.0917 49.5514C21.0917 49.5514 14.1251 55.0674 13.4922 56.8183C12.8639 58.5692 12.9471 63.3553 14.5917 66.469C16.2363 69.5827 16.2687 81.3262 16.9201 83.5899C17.5714 85.8535 23.785 86.2739 27.5732 85.3454C31.3614 84.4168 37.381 81.243 36.1706 76.942C34.3828 70.5898 34.8078 64.1915 34.951 62.1726C35.0942 60.1492 34.5814 55.1183 33.4819 51.7828C33.2509 51.0806 30.7655 50.0966 30.7655 50.0966C30.7655 50.0966 28.1969 48.8954 21.0917 49.5514Z" fill="#0046A6"/>
<path d="M22.3575 75.8335C19.4794 72.1885 23.7019 59.7244 18.7125 56.2735C17.1926 55.2201 15.8852 54.9568 14.8042 55.0908C14.1343 55.793 13.64 56.4074 13.4922 56.8186C12.8639 58.5695 12.9471 63.3556 14.5917 66.4693C16.2363 69.583 16.2687 81.3264 16.9201 83.5901C17.5114 85.6505 22.7132 86.1818 26.4968 85.5581L31.9435 79.862C31.9435 79.862 25.231 79.4785 22.3575 75.8335Z" fill="#003783"/>
<path d="M20.8563 50.485C26.9128 49.926 29.7031 50.97 30.3961 51.2888C30.5024 52.5084 30.5532 54.1161 30.3083 55.5898C29.8325 58.4541 28.6914 66.3169 28.6914 66.3169C28.6914 66.3169 24.954 59.8539 22.4917 57.1929C20.7593 55.3219 19.0546 53.5571 18.1953 52.6747C19.6505 51.4413 20.8563 50.485 20.8563 50.485Z" fill="#E1E8F2"/>
<path d="M27.088 49.2008C27.088 49.2008 27.0742 49.2932 27.1019 49.4318C27.2082 49.9584 27.5362 51.2982 27.6147 51.8618C27.6886 52.4023 27.1204 53.3724 25.6559 53.414C24.1914 53.4556 21.6783 52.9659 20.7636 51.2612C20.8144 50.9471 20.5511 47.7225 20.2646 46.124L27.088 49.2008Z" fill="#FF8654"/>
<path d="M30.2347 38.5475C29.1768 34.1125 25.504 31.7472 21.5403 32.8837C21.5403 32.8837 17.2162 33.535 15.4699 37.448C13.7283 41.3609 16.7219 44.4331 18.6391 46.3687C19.4475 47.1633 20.0573 47.7731 20.4408 48.1658C20.5794 48.3137 20.718 48.4615 20.8612 48.5955C20.8889 48.6232 20.9028 48.637 20.9028 48.637L20.9074 48.6324C22.2102 49.8105 23.6654 50.4434 24.7325 50.7067C26.5065 51.141 28.5623 50.739 29.6203 49.4963C30.6828 48.249 31.2972 42.9825 30.2347 38.5475Z" fill="#FF9F75"/>
<path d="M29.5366 57.1928L26.8341 54.7998L24.672 58.5788L22.4961 57.2021C24.9584 59.8677 28.6912 66.3169 28.6912 66.3169C28.6912 66.3169 29.6429 59.7568 30.1695 56.4352L29.5366 57.1928Z" fill="#CFDAE4"/>
<path d="M29.3519 61.8267L28.1507 57.5812L28.3309 56.1259L26.8387 54.8047L25.79 56.6387L26.9912 57.7382L27.3192 64.0442C28.1369 65.3701 28.6912 66.3264 28.6912 66.3264C28.6912 66.3264 28.9962 64.2382 29.3519 61.8267Z" fill="#00A5FF"/>
<path d="M14.9693 37.0043C14.9693 37.0043 13.2415 40.1688 15.3989 43.4766C17.5564 46.7843 19.8709 48.2581 20.4391 48.1657C21.0073 48.0779 21.2984 47.9347 21.1505 47.5004C21.0073 47.0708 20.2867 45.6294 20.2867 45.6294C20.2867 45.6294 17.8428 45.343 17.8428 43.7584C17.8428 42.1784 18.7067 41.8874 19.7138 42.3217C20.7209 42.7513 20.8641 43.472 21.4416 44.0494C22.0191 44.6269 22.1623 46.0637 22.5919 45.9205C23.0216 45.7772 23.3126 45.343 23.3126 44.6269C23.3126 43.9062 23.3126 43.047 22.4487 42.1831C21.5848 41.3192 22.5919 39.8824 21.728 38.7321C20.8641 37.5818 20.2913 37.1521 20.2913 37.1521C20.2913 37.1521 20.8687 38.016 23.7422 37.4386C26.6203 36.8611 27.9139 37.0089 29.0642 36.2882C30.2145 35.5676 29.9281 33.9876 29.2074 33.4101C28.4867 32.8327 26.7636 32.5462 24.7493 31.8302C22.7351 31.1141 21.5848 31.5438 19.1409 32.1166C16.6971 32.6895 14.3965 35.2765 14.9693 37.0043Z" fill="#E16B40"/>
<path d="M55.5323 123.583C55.5323 123.583 55.4353 125.02 56.969 126.078C58.5028 127.131 58.7892 127.805 60.0365 128.281C61.2839 128.762 62.4342 130.392 61.8567 131.543C61.2793 132.693 58.5952 132.887 56.872 132.407C55.1442 131.926 54.8578 130.392 53.227 129.82C51.5962 129.247 51.0234 128.572 50.5429 128.092C50.0625 127.611 50.2565 125.694 50.2565 125.694L56.1051 123.777" fill="#382747"/>
<path d="M63.0108 118.021C63.0108 118.021 62.9138 119.458 64.4475 120.516C65.9813 121.569 66.2677 122.244 67.5151 122.72C68.7624 123.2 69.9127 124.831 69.3353 125.981C68.7578 127.132 66.0737 127.326 64.3505 126.845C62.6227 126.365 62.3363 124.831 60.7055 124.258C59.0748 123.681 58.5019 123.011 58.0214 122.53C57.541 122.05 57.735 120.133 57.735 120.133L63.5836 118.216" fill="#382747"/>
<path d="M17.3691 83.6497C17.3691 83.6497 17.6556 84.8 17.6556 85.8072C17.6556 86.8143 16.9349 89.6924 18.3762 93.1433C19.813 96.5943 29.4498 97.315 32.6144 98.7517C35.7789 100.188 37.6499 101.487 38.2228 101.916C38.8002 102.346 39.6133 108.435 42.108 112.08C44.6026 115.725 48.8205 123.01 49.7768 126.078C49.7768 126.078 52.5071 126.72 54.9555 125.117C56.2398 124.276 56.1059 123.772 56.1059 123.772C56.1059 123.772 51.1211 112.842 49.9708 108.241C48.8205 103.639 47.4761 98.2666 45.3695 96.9269C43.2629 95.5872 36.5504 90.7919 35.012 89.831C33.4783 88.87 29.3436 85.8395 28.5351 84.0008C27.7266 82.1622 19.8638 79.1917 17.3691 83.6497Z" fill="#94A3C0"/>
<path d="M25.2812 78.9014C25.2812 78.9014 25.5677 80.0517 25.5677 81.0588C25.5677 82.0659 24.847 84.944 26.2884 88.395C27.7251 91.846 37.3619 92.5666 40.5265 94.0034C43.691 95.4401 45.562 96.7383 46.1349 97.1679C46.7123 97.5976 47.5254 103.686 50.0201 107.331C52.5148 110.976 56.7326 118.262 57.6889 121.329C57.6889 121.329 60.4192 121.971 62.8676 120.368C64.1519 119.528 64.018 119.024 64.018 119.024C64.018 119.024 59.0332 108.094 57.8829 103.492C56.7326 98.8911 55.3882 93.5183 53.2816 92.1786C51.1704 90.8342 44.4625 86.0435 42.9241 85.0826C41.3857 84.1217 37.2557 81.0912 36.4472 79.2525C35.6341 77.4184 27.7713 74.4433 25.2812 78.9014Z" fill="#94A3C0"/>
<path d="M64.1091 115.268L64.0259 144.52L58.9072 147.495L58.9904 118.243L64.1091 115.268Z" fill="#C7D8F2"/>
<path d="M58.9901 118.243L58.9069 147.495L53.7559 144.52L53.839 115.268L58.9901 118.243Z" fill="#7BAEFF"/>
<path d="M64.1076 115.267L58.9889 118.243L53.8379 115.267L58.9566 112.297L64.1076 115.267Z" fill="#4DA5DC"/>
<path d="M148.252 95.2322C148.243 95.3153 148.238 95.4031 148.225 95.4862C148.211 95.5555 148.192 95.6248 148.174 95.6941C148.151 95.7773 148.132 95.8558 148.104 95.9344C148.081 95.999 148.049 96.0683 148.021 96.133C147.984 96.2162 147.947 96.3039 147.901 96.3871C147.869 96.4471 147.827 96.5072 147.79 96.5673C147.73 96.6643 147.67 96.7567 147.601 96.8491C147.532 96.9415 147.462 97.0292 147.388 97.117C147.37 97.1355 147.351 97.1586 147.333 97.1771C147.227 97.2926 147.111 97.4034 146.991 97.5143C146.912 97.5836 146.825 97.6529 146.742 97.7222C146.668 97.7823 146.594 97.8423 146.515 97.9024C146.423 97.9671 146.321 98.0317 146.224 98.0964C146.123 98.1611 146.026 98.2304 145.915 98.2951L80.12 136.533C79.5794 136.847 78.9789 137.11 78.3414 137.314C77.847 137.475 77.3342 137.6 76.803 137.697C76.4611 137.757 76.1146 137.808 75.7681 137.84C75.4679 137.868 75.1676 137.891 74.8673 137.9C74.5901 137.91 74.3129 137.91 74.0357 137.905C73.7678 137.9 73.4998 137.882 73.2365 137.863L73.2227 142.552C73.486 142.575 73.7539 142.589 74.0219 142.594C74.2991 142.599 74.5762 142.599 74.8534 142.589C75.1537 142.58 75.454 142.557 75.7543 142.529C76.1054 142.492 76.4473 142.446 76.7891 142.386C77.3204 142.289 77.8332 142.164 78.3275 142.003C78.965 141.795 79.5656 141.536 80.1061 141.222L145.901 102.984C145.933 102.966 145.965 102.947 145.998 102.924C146.072 102.878 146.136 102.832 146.206 102.785C146.307 102.721 146.409 102.656 146.501 102.587C146.58 102.527 146.654 102.467 146.728 102.407C146.811 102.337 146.899 102.273 146.977 102.199C146.991 102.185 147.014 102.171 147.028 102.157C147.134 102.06 147.227 101.963 147.319 101.862C147.338 101.838 147.356 101.82 147.374 101.797C147.43 101.737 147.485 101.677 147.532 101.612C147.555 101.584 147.569 101.557 147.587 101.529C147.656 101.436 147.721 101.339 147.776 101.247C147.799 101.206 147.832 101.169 147.855 101.127C147.864 101.108 147.873 101.085 147.883 101.067C147.929 100.984 147.966 100.901 148.003 100.813C148.026 100.762 148.054 100.716 148.072 100.665C148.077 100.647 148.081 100.633 148.086 100.614C148.114 100.536 148.132 100.452 148.155 100.369C148.169 100.314 148.192 100.258 148.201 100.208C148.206 100.194 148.206 100.18 148.206 100.166C148.22 100.083 148.229 99.9951 148.234 99.912C148.238 99.8565 148.252 99.8011 148.252 99.7457C148.252 99.7226 148.252 99.6995 148.252 99.6764L148.266 94.9873C148.271 95.0751 148.257 95.1536 148.252 95.2322Z" fill="#ADCDFC"/>
<path d="M72.4425 137.775C72.17 137.738 71.902 137.692 71.6387 137.637C71.3523 137.577 71.0705 137.507 70.7933 137.429C70.456 137.332 70.1234 137.221 69.8093 137.096C69.3981 136.935 69.0054 136.745 68.6358 136.533L2.41154 98.2995C0.813098 97.3756 0.00925944 96.1606 0.0138792 94.9502L1.99128e-05 99.6393C-0.00459985 100.85 0.794619 102.065 2.39768 102.989L68.622 141.222C68.9869 141.434 69.3796 141.619 69.7954 141.785C70.1142 141.91 70.4422 142.021 70.7794 142.118C71.0566 142.197 71.3384 142.266 71.6248 142.326C71.8881 142.381 72.1561 142.428 72.4287 142.464C72.6874 142.501 72.9553 142.529 73.2186 142.552L73.2325 137.863C72.9692 137.84 72.7058 137.812 72.4425 137.775Z" fill="#ADCDFC"/>
<path d="M145.873 91.8316C149.056 93.6703 149.07 96.6454 145.91 98.4841L80.1152 136.722C76.9553 138.561 71.8135 138.561 68.6351 136.722L2.41079 98.4841C-0.772227 96.6454 -0.786086 93.6703 2.37383 91.8316L68.1685 53.5938C71.3284 51.7552 76.4702 51.7552 79.6486 53.5938L145.873 91.8316Z" fill="#E2EDFF"/>
<path d="M74.6982 105.682L92.8262 116.215L105.581 108.856L87.4488 98.3182L74.6982 105.682Z" fill="white"/>
<path d="M90.1046 103.059L87.2543 104.717L83.6416 103.655C84.6487 102.5 87.0833 102.043 89.0791 102.629C89.4764 102.745 89.7905 102.879 90.1046 103.059Z" fill="#FF5668"/>
<path d="M90.7609 103.276C92.6781 104.385 92.6873 106.177 90.784 107.286C88.8806 108.395 85.7808 108.395 83.8636 107.286C82.3298 106.399 81.9695 105.11 82.9442 103.997L87.3099 105.286L90.7609 103.276Z" fill="#B391FF"/>
<path d="M88.1361 111.152C87.9791 111.244 87.9745 111.387 88.1361 111.48C88.2932 111.572 88.5473 111.572 88.7044 111.48L96.7982 106.809C96.9553 106.717 96.9599 106.574 96.7982 106.481C96.6411 106.389 96.387 106.389 96.23 106.481L88.1361 111.152Z" fill="#ADCDFC"/>
<path d="M93.7311 109.003C93.574 109.091 93.574 109.243 93.7311 109.331C93.8882 109.423 94.1469 109.423 94.3039 109.331L97.7364 107.349C97.8935 107.257 97.8935 107.109 97.7364 107.016C97.5793 106.924 97.3253 106.924 97.1682 107.016L93.7311 109.003Z" fill="#D4D9DF"/>
<path d="M92.6631 110.635C92.506 110.727 92.5014 110.875 92.6585 110.967C92.8156 111.06 93.0696 111.055 93.2313 110.967L98.6041 107.863C98.7612 107.771 98.7658 107.627 98.6041 107.535C98.4471 107.443 98.193 107.443 98.0359 107.535L92.6631 110.635Z" fill="#D4D9DF"/>
<path d="M96.0449 120.688C96.4838 120.942 96.4884 121.353 96.0495 121.607L83.1095 129.119C82.6707 129.373 81.9592 129.373 81.5203 129.119L72.4887 123.903C72.0498 123.649 72.0452 123.238 72.4841 122.984L85.424 115.472C85.8629 115.218 86.5744 115.218 87.0132 115.472L96.0449 120.688Z" fill="#F2F8FD"/>
<path d="M96.3716 121.187C96.3716 121.201 96.3716 121.21 96.367 121.224C96.367 121.233 96.3624 121.242 96.3578 121.252C96.3531 121.261 96.3531 121.275 96.3485 121.284C96.3439 121.293 96.3393 121.303 96.3393 121.312C96.3347 121.326 96.33 121.335 96.3208 121.349C96.3162 121.358 96.3116 121.367 96.3069 121.372C96.2977 121.386 96.2885 121.4 96.2792 121.413C96.2746 121.423 96.2654 121.427 96.2607 121.436C96.2469 121.455 96.2284 121.469 96.2145 121.487C96.2099 121.492 96.2007 121.501 96.1961 121.506C96.1868 121.515 96.173 121.524 96.1637 121.534C96.1545 121.543 96.1452 121.552 96.1314 121.557C96.1175 121.566 96.1037 121.575 96.0898 121.584C96.076 121.594 96.0621 121.603 96.0482 121.612L83.1083 129.124C83.0575 129.151 83.0066 129.175 82.9512 129.198C82.9373 129.202 82.9235 129.207 82.9096 129.216C82.8773 129.23 82.8403 129.239 82.8034 129.248C82.7664 129.258 82.7295 129.267 82.6925 129.276C82.6463 129.285 82.6047 129.295 82.5585 129.299C82.5493 129.299 82.5354 129.304 82.5262 129.304C82.4661 129.309 82.4015 129.313 82.3368 129.313C82.3275 129.313 82.3183 129.313 82.3091 129.313C82.2444 129.313 82.1843 129.309 82.1243 129.304C82.115 129.304 82.1058 129.304 82.0966 129.299C82.0365 129.29 81.9764 129.281 81.9164 129.267C81.9071 129.262 81.8933 129.262 81.884 129.258C81.8286 129.244 81.7778 129.23 81.727 129.212C81.7177 129.207 81.7085 129.207 81.6993 129.202C81.6392 129.179 81.5791 129.151 81.5283 129.119L72.4967 123.903C72.3304 123.806 72.2287 123.691 72.1872 123.566C72.1733 123.525 72.1687 123.483 72.1687 123.441L72.1641 123.959C72.1641 123.982 72.1641 124 72.1687 124.024C72.1918 124.171 72.3026 124.315 72.4967 124.425L81.5283 129.641C81.5791 129.669 81.6346 129.697 81.69 129.72C81.6946 129.72 81.6946 129.72 81.6993 129.724C81.7085 129.729 81.7177 129.729 81.727 129.734C81.7593 129.747 81.7916 129.757 81.8286 129.766C81.8471 129.771 81.8656 129.775 81.884 129.78C81.8933 129.784 81.9071 129.784 81.9164 129.789C81.9256 129.789 81.9349 129.794 81.9441 129.798C81.9811 129.807 82.018 129.812 82.055 129.817C82.0688 129.817 82.0827 129.821 82.0966 129.821C82.1058 129.821 82.115 129.821 82.1243 129.826C82.1381 129.826 82.152 129.831 82.1658 129.831C82.2028 129.835 82.2398 129.835 82.2767 129.835C82.2906 129.835 82.2998 129.835 82.3137 129.835C82.3229 129.835 82.3322 129.835 82.3414 129.835C82.3599 129.835 82.3737 129.835 82.3922 129.835C82.4338 129.835 82.4754 129.831 82.5169 129.826C82.5216 129.826 82.5262 129.826 82.5308 129.826C82.54 129.826 82.5539 129.821 82.5631 129.821C82.5955 129.817 82.6278 129.812 82.6602 129.807C82.674 129.803 82.6879 129.798 82.7017 129.798C82.7387 129.789 82.7757 129.78 82.8126 129.771C82.8311 129.766 82.8542 129.761 82.8727 129.757C82.8865 129.752 82.905 129.743 82.9189 129.738C82.9327 129.734 82.9466 129.729 82.9651 129.72C83.0205 129.697 83.0713 129.674 83.1221 129.646L96.0621 122.134C96.0667 122.129 96.0713 122.129 96.076 122.125C96.0852 122.12 96.0944 122.111 96.1037 122.106C96.1175 122.097 96.1314 122.088 96.1452 122.079C96.1545 122.069 96.1684 122.06 96.1776 122.056C96.1914 122.046 96.2007 122.037 96.2099 122.028L96.2145 122.023C96.2192 122.019 96.2238 122.014 96.2284 122.009C96.2469 121.991 96.2607 121.977 96.2746 121.959C96.2792 121.954 96.2838 121.949 96.2838 121.949C96.2885 121.945 96.2885 121.94 96.2931 121.94C96.3023 121.926 96.3116 121.912 96.3208 121.898C96.3254 121.894 96.33 121.889 96.33 121.88C96.33 121.875 96.3347 121.875 96.3347 121.871C96.3393 121.857 96.3439 121.848 96.3531 121.834C96.3578 121.829 96.3624 121.82 96.3624 121.815C96.3624 121.811 96.3624 121.811 96.3624 121.806C96.367 121.797 96.367 121.783 96.3716 121.774C96.3716 121.764 96.3762 121.76 96.3762 121.751V121.746C96.3762 121.732 96.3809 121.723 96.3809 121.709C96.3809 121.7 96.3855 121.695 96.3855 121.686C96.3855 121.681 96.3855 121.681 96.3855 121.677L96.3901 121.159C96.3716 121.164 96.3716 121.173 96.3716 121.187Z" fill="url(#paint0_linear_223_1956)"/>
<path d="M94.7075 120.854C94.8507 120.938 94.8507 121.067 94.7075 121.15L82.4236 128.288C82.285 128.371 82.054 128.371 81.9108 128.288L73.7754 123.589C73.6322 123.506 73.6322 123.377 73.7754 123.294L86.0593 116.156C86.2025 116.073 86.4289 116.073 86.5721 116.156L94.7075 120.854Z" fill="url(#paint1_linear_223_1956)"/>
<path d="M34.4268 78.0653L52.5547 88.603L65.3099 81.2391L47.1773 70.7061L34.4268 78.0653Z" fill="white"/>
<path d="M49.8332 75.4458L46.9828 77.1043L43.3701 76.0418C44.3772 74.8868 46.8118 74.4295 48.8076 75.0162C49.2049 75.1317 49.519 75.261 49.8332 75.4458Z" fill="#B391FF"/>
<path d="M50.4894 75.6628C52.4066 76.7716 52.4158 78.5641 50.5125 79.6728C48.6092 80.7815 45.5093 80.7815 43.5921 79.6728C42.0583 78.7858 41.698 77.4969 42.6728 76.3835L47.0384 77.6724L50.4894 75.6628Z" fill="#05CCFF"/>
<path d="M47.8656 83.5397C47.7086 83.6321 47.7039 83.7753 47.8656 83.8677C48.0227 83.9601 48.2768 83.9601 48.4339 83.8677L56.5277 79.1971C56.6848 79.1047 56.6894 78.9615 56.5277 78.8691C56.3706 78.7767 56.1165 78.7767 55.9595 78.8691L47.8656 83.5397Z" fill="#ADCDFC"/>
<path d="M53.4557 81.391C53.2986 81.4788 53.2986 81.6312 53.4557 81.719C53.6128 81.8114 53.8715 81.8114 54.0285 81.719L57.461 79.7371C57.6181 79.6447 57.6181 79.4969 57.461 79.4045C57.304 79.3167 57.0499 79.3121 56.8928 79.4045L53.4557 81.391Z" fill="#D4D9DF"/>
<path d="M52.3926 83.0178C52.2355 83.1102 52.2309 83.258 52.388 83.3504C52.5451 83.4428 52.7991 83.4382 52.9608 83.3504L58.3336 80.2459C58.4907 80.1535 58.4953 80.0103 58.3336 79.9179C58.1765 79.8255 57.9225 79.8255 57.7654 79.9179L52.3926 83.0178Z" fill="#05CCFF"/>
<path d="M63.5835 110.543V111.633L61.0703 113.093V112.003L63.5835 110.543Z" fill="#540CC7"/>
<path d="M61.0698 112.002V113.092L39.708 100.758L39.7126 99.6719L61.0698 112.002Z" fill="#3F0995"/>
<path d="M63.5832 110.542L61.0701 112.002L39.7129 99.6718L42.226 98.2119L63.5832 110.542Z" fill="#7974F5"/>
<path d="M54.0893 110.749V111.839L51.5762 113.299L51.5808 112.209L54.0893 110.749Z" fill="#2689FD"/>
<path d="M51.5807 112.209L51.5761 113.299L34.8018 103.612V102.521L51.5807 112.209Z" fill="#3548DB"/>
<path d="M54.0893 110.749L51.5807 112.209L34.8018 102.522L37.3149 101.066L54.0893 110.749Z" fill="#58AFFB"/>
<path d="M40.0766 108.352V109.443L37.5635 110.903L37.5681 109.812L40.0766 108.352Z" fill="#EE2C6A"/>
<path d="M37.5684 109.812L37.5638 110.902L29.8857 106.467L29.8904 105.377L37.5684 109.812Z" fill="#EE428C"/>
<path d="M40.0782 108.352L37.5697 109.812L29.8916 105.377L32.4001 103.922L40.0782 108.352Z" fill="#FF3D9D"/>
<path d="M23.132 102.337C22.8826 102.48 22.8826 102.711 23.1274 102.854C23.3769 102.997 23.7742 102.997 24.0236 102.854L36.7788 95.4901C37.0283 95.3468 37.0283 95.1159 36.7834 94.9726C36.534 94.8294 36.1367 94.8294 35.8872 94.9726L23.132 102.337Z" fill="#ADCDFC"/>
<path d="M31.9457 98.9498C31.7009 99.093 31.6963 99.3287 31.9411 99.4672C32.1906 99.6105 32.5971 99.6105 32.842 99.4719L38.2563 96.3443C38.5058 96.2011 38.5058 95.9655 38.2563 95.8223C38.0115 95.679 37.6096 95.679 37.3601 95.8223L31.9457 98.9498Z" fill="#ADCDFC"/>
<path d="M30.2689 101.514C30.0195 101.658 30.0102 101.893 30.2597 102.036C30.5092 102.18 30.9111 102.18 31.1605 102.032L39.6332 97.1395C39.8827 96.9963 39.8827 96.7653 39.6378 96.6221C39.3883 96.4788 38.991 96.4788 38.7416 96.6221L30.2689 101.514Z" fill="#ADCDFC"/>
<path d="M29.5011 89.716L27.4731 90.894C25.6344 89.8915 22.7424 89.9054 20.9499 90.9494C20.913 90.9725 20.876 90.991 20.8437 91.0141L18.8018 89.8361C18.8387 89.813 18.8757 89.7945 18.9126 89.7714C21.8231 88.0806 26.5352 88.0621 29.5011 89.716Z" fill="#7CCCFF"/>
<path d="M29.8162 89.9004C32.2231 91.4064 32.4725 93.6563 30.5553 95.3101L28.4533 94.0951C29.2987 93.1296 29.0724 91.9285 27.7881 91.083L29.8162 89.9004Z" fill="#7CCCFF"/>
<path d="M30.2916 95.5227C30.093 95.6751 29.8712 95.823 29.631 95.9616C26.7621 97.6293 22.147 97.6709 19.1719 96.0863L21.2 94.9083C23.0432 95.8415 25.8428 95.7999 27.5891 94.7835C27.8339 94.6403 28.0418 94.4879 28.2174 94.3262L30.2916 95.5227Z" fill="#3EABFF"/>
<path d="M20.558 91.2129C19.1721 92.257 19.2829 93.7492 20.8814 94.7286L18.8533 95.9066C16.1276 94.2758 16.0075 91.7303 18.5068 90.0303L20.558 91.2129Z" fill="#3EABFF"/>
<path d="M69.6616 35.2762C70.5948 35.8121 71.3478 37.1241 71.3432 38.1912L71.3247 54.4944C71.3201 55.5662 70.5625 55.9958 69.6293 55.4599L65.0834 52.8359L64.8617 53.1454L63.9747 54.3927L63.0969 52.1244L62.8798 51.5608L58.3339 48.9368C57.4007 48.4009 56.6523 47.0935 56.6523 46.0217L56.6708 29.7186C56.6754 28.6468 57.4331 28.2125 58.3617 28.7531L69.6616 35.2762Z" fill="#58AFFB"/>
<path d="M61.7803 35.4515V35.9089C61.7803 36.1814 61.4846 36.3477 61.2536 36.2138L59.0916 34.9572C58.9807 34.8925 58.916 34.777 58.916 34.6523V34.1949C58.916 33.9224 59.2117 33.7561 59.4427 33.89L61.6047 35.1466C61.711 35.2067 61.7803 35.3222 61.7803 35.4515Z" fill="white"/>
<path d="M68.6262 41.683V42.145C68.6262 42.4129 68.3352 42.5839 68.0996 42.4499L59.0818 37.2434C58.9709 37.1788 58.9062 37.0633 58.9062 36.9385V36.4766C58.9062 36.2086 59.1973 36.0377 59.4329 36.1716L68.4507 41.3781C68.5569 41.4382 68.6262 41.5583 68.6262 41.683Z" fill="#ADCDFC"/>
<path d="M61.2298 41.5035V42.0302L60.0102 46.1972L59.4882 45.8969L60.7032 41.7345L59.1094 40.8152V40.2793L61.2298 41.5035Z" fill="white"/>
<path d="M63.7103 42.9363V43.4722L62.3336 42.6776L62.2551 44.2945C62.4075 44.0866 62.6385 44.0681 62.9573 44.2529C63.5625 44.5994 63.8258 45.2647 63.8258 46.0315L63.8212 47.0849C63.8166 47.9118 63.4747 48.249 62.7633 47.8379C62.0426 47.4221 61.71 46.6922 61.71 45.8652V45.5049L62.2043 45.7913V46.1886C62.2043 46.6737 62.3752 47.0664 62.7494 47.2835C63.1236 47.5006 63.2992 47.3066 63.2992 46.8215L63.3038 45.7775C63.3038 45.2924 63.1282 44.8951 62.7586 44.6826C62.4722 44.5163 62.2736 44.5902 62.2274 44.9551V45.0753L61.7331 44.7888L61.8716 41.8691L63.7103 42.9363Z" fill="white"/>
<path d="M67.2768 46.9824C67.7388 47.2504 67.9467 47.717 67.9421 48.2298L67.9375 49.9252C67.9375 50.4519 67.7296 50.6782 67.2676 50.4103C66.8102 50.147 66.5931 49.6758 66.5977 49.1491L66.6023 47.4583C66.6023 46.9409 66.8195 46.7191 67.2768 46.9824ZM67.6002 49.7635L67.6048 48.0126C67.6048 47.717 67.5078 47.4675 67.2722 47.3335C67.0366 47.1949 66.935 47.3289 66.935 47.6246L66.9304 49.3755C66.9304 49.6665 67.0274 49.9252 67.2676 50.0592C67.4986 50.1978 67.6002 50.0546 67.6002 49.7635Z" fill="white"/>
<path d="M65.6425 46.5943C65.6425 47.1164 65.4254 47.3381 64.9681 47.0702C64.5153 46.8068 64.2982 46.3356 64.3028 45.8182L64.3074 44.1135C64.3074 43.6007 64.5246 43.3697 64.9773 43.6331C65.4346 43.8964 65.6518 44.3768 65.6472 44.8896L65.6425 46.5943ZM65.3053 46.428L65.3099 44.6725C65.3099 44.3815 65.2129 44.1227 64.9727 43.9888C64.7324 43.8502 64.64 43.998 64.64 44.2891L64.6354 46.0446C64.6354 46.3402 64.7232 46.5805 64.9681 46.7237C65.2037 46.8576 65.3053 46.7237 65.3053 46.428Z" fill="white"/>
<path d="M66.8801 44.7656L67.1896 44.9458L65.3324 49.2699L65.0137 49.0851L66.8801 44.7656Z" fill="white"/>
<path d="M90.2707 69.0794C95.662 72.1932 95.6989 77.2426 90.34 80.3563C84.9811 83.47 76.259 83.47 70.8677 80.3563C65.4764 77.2426 65.4533 72.1932 70.8123 69.0794C76.1666 65.9657 84.8794 65.9657 90.2707 69.0794Z" fill="#ADCDFC"/>
<path d="M90.3944 65.7451L90.3898 67.727L86.9619 69.7227L86.9665 67.7362L90.3944 65.7451Z" fill="#CC096A"/>
<path d="M76.6095 69.1359C76.6326 69.1267 76.6557 69.1174 76.6788 69.1082C76.8682 69.0343 77.0669 68.9696 77.2655 68.9049C77.4041 68.8634 77.5427 68.8218 77.6859 68.7848C77.7922 68.7571 77.8985 68.7248 78.0093 68.697C78.1572 68.6601 78.3096 68.6324 78.4621 68.6C78.5729 68.5769 78.6838 68.5538 78.7947 68.5307C78.8409 68.5215 78.8871 68.5169 78.9333 68.5076C79.1227 68.4753 79.3121 68.4522 79.5015 68.4291C79.5569 68.4245 79.6124 68.4152 79.6678 68.4106C79.8896 68.3875 80.1113 68.369 80.3331 68.3552C80.3746 68.3506 80.4162 68.3506 80.4578 68.3506C80.6056 68.3413 80.7581 68.3413 80.9059 68.3367C81.0538 68.3321 81.2062 68.3321 81.354 68.3367C81.4788 68.3367 81.6035 68.3413 81.7282 68.3459C81.8668 68.3506 82.0054 68.3598 82.144 68.369C82.2687 68.3783 82.3981 68.3875 82.5228 68.4014C82.6614 68.4152 82.7954 68.4291 82.934 68.4476C83.0587 68.4614 83.1788 68.4799 83.299 68.4984C83.4468 68.5215 83.59 68.5446 83.7332 68.5723C83.8857 68.6 84.0335 68.6277 84.1813 68.6647C84.2183 68.6739 84.2506 68.6786 84.2876 68.6878C84.4955 68.7386 84.7034 68.7941 84.9066 68.8541C84.9667 68.8726 85.0221 68.8911 85.0776 68.9096C85.2439 68.9604 85.4102 69.0204 85.5765 69.0805C85.6227 69.099 85.6735 69.1128 85.7197 69.1313C85.8675 69.1867 86.0108 69.2514 86.154 69.3161C86.2233 69.3484 86.2972 69.3762 86.3665 69.4085C86.5744 69.5055 86.773 69.6118 86.967 69.7226L86.9717 67.4081C86.7776 67.2973 86.579 67.191 86.3711 67.094C86.3018 67.0616 86.2325 67.0339 86.1586 67.0016C86.0339 66.9462 85.9137 66.8907 85.789 66.8399C85.7659 66.8307 85.7428 66.826 85.7243 66.8168C85.6781 66.7983 85.6273 66.7845 85.5811 66.766C85.4194 66.7059 85.2531 66.6505 85.0822 66.595C85.0267 66.5766 84.9667 66.5581 84.9113 66.5396C84.8743 66.5304 84.8327 66.5165 84.7958 66.5027C84.6295 66.4565 84.4631 66.4149 84.2968 66.3733C84.2599 66.3641 84.2275 66.3594 84.1906 66.3502C84.1074 66.3317 84.0289 66.3132 83.9457 66.2948C83.8764 66.2809 83.8118 66.2717 83.7425 66.2578C83.5992 66.2301 83.456 66.207 83.3082 66.1839C83.2481 66.1747 83.1927 66.1608 83.1326 66.1516C83.068 66.1423 83.0033 66.1377 82.9386 66.1285C82.8046 66.11 82.666 66.0961 82.5275 66.0823C82.4628 66.0776 82.3981 66.0638 82.3334 66.0592C82.2734 66.0545 82.2133 66.0545 82.1486 66.0499C82.01 66.0407 81.8715 66.0314 81.7329 66.0268C81.6636 66.0222 81.5943 66.0176 81.525 66.0176C81.4695 66.0176 81.4141 66.0176 81.3587 66.0176C81.2108 66.0176 81.0584 66.0176 80.9105 66.0176C80.8366 66.0176 80.7627 66.0176 80.6888 66.0176C80.6149 66.0222 80.5363 66.0268 80.4624 66.0268C80.4208 66.0268 80.3793 66.0314 80.3377 66.0314C80.1529 66.0407 79.9635 66.0545 79.7787 66.073C79.7417 66.0776 79.7094 66.0823 79.6724 66.0869C79.617 66.0915 79.5616 66.1007 79.5061 66.1054C79.3167 66.1285 79.1273 66.1562 78.9379 66.1839C78.8917 66.1931 78.8455 66.1978 78.7993 66.207C78.7762 66.2116 78.7531 66.2116 78.7346 66.2162C78.6469 66.2301 78.5591 66.2532 78.4713 66.2717C78.3189 66.304 78.1664 66.3317 78.0186 66.3687C77.9077 66.3964 77.8061 66.4241 77.6952 66.4565C77.552 66.4934 77.4134 66.535 77.2748 66.5766C77.2471 66.5858 77.2147 66.5951 77.1824 66.6043C77.0115 66.6597 76.8498 66.7198 76.6835 66.7798C76.6604 66.7891 76.6373 66.7983 76.6142 66.8076C76.434 66.8769 76.2631 66.9508 76.0921 67.0293C76.0413 67.0524 75.9905 67.0755 75.9397 67.0986C75.7503 67.191 75.5655 67.2834 75.3853 67.3896C75.353 67.4081 75.3206 67.4266 75.2837 67.4497C75.2513 67.4682 75.2236 67.4867 75.1959 67.5051C75.1451 67.5375 75.0943 67.5698 75.0481 67.5975C75.0019 67.6253 74.9603 67.6576 74.9187 67.6853C74.8725 67.7177 74.8263 67.75 74.7801 67.7823C74.7385 67.8147 74.697 67.8424 74.66 67.8747C74.6184 67.9071 74.5722 67.9394 74.5306 67.9764C74.4937 68.0087 74.4567 68.041 74.4198 68.0688C74.3782 68.1011 74.3412 68.1381 74.2997 68.1704C74.2858 68.1842 74.2673 68.1981 74.2488 68.212C74.235 68.2258 74.2211 68.2397 74.2073 68.2535C74.1426 68.3136 74.0825 68.3737 74.0225 68.4383C74.004 68.4614 73.9809 68.4799 73.9624 68.503C73.8885 68.5862 73.8146 68.6693 73.7499 68.7525C73.7453 68.7571 73.7453 68.7617 73.7407 68.7617C73.7268 68.7802 73.7129 68.7987 73.6991 68.8218C73.6575 68.8726 73.6206 68.928 73.5836 68.9788C73.5651 69.0066 73.5466 69.0389 73.5282 69.0666C73.4958 69.1128 73.4681 69.1636 73.4404 69.2098C73.4311 69.2237 73.4219 69.2376 73.4173 69.2514C73.408 69.2699 73.3988 69.293 73.3849 69.3115C73.3619 69.353 73.3434 69.3946 73.3203 69.4362C73.3018 69.4685 73.2879 69.5055 73.2741 69.5378C73.2556 69.5794 73.2371 69.621 73.2233 69.6626C73.214 69.6811 73.2048 69.6995 73.2002 69.718C73.1955 69.7365 73.1909 69.7504 73.1817 69.7688C73.1678 69.8104 73.154 69.8474 73.1401 69.8889C73.1309 69.9259 73.117 69.9629 73.1078 69.9952C73.0985 70.0368 73.0893 70.0737 73.08 70.1153C73.0754 70.1384 73.0708 70.1569 73.0662 70.18C73.0616 70.1938 73.0616 70.2077 73.0616 70.2216C73.0523 70.2631 73.0477 70.3047 73.0431 70.3463C73.0385 70.3833 73.0338 70.4202 73.0292 70.4526C73.0246 70.4941 73.0246 70.5357 73.02 70.5773C73.02 70.6004 73.0154 70.6235 73.0154 70.6512C73.0154 70.6743 73.0154 71.03 73.0154 71.0531L73.0107 73.035C73.0107 72.9888 73.0154 72.938 73.0154 72.8918C73.0154 72.8502 73.02 72.8086 73.0246 72.7671C73.0292 72.7301 73.0338 72.6931 73.0385 72.6608C73.0431 72.6192 73.0523 72.5776 73.0569 72.5407C73.0616 72.5037 73.0708 72.4668 73.08 72.4298C73.0893 72.3882 73.0985 72.3513 73.1078 72.3097C73.117 72.2727 73.1262 72.2358 73.1401 72.2034C73.154 72.1619 73.1632 72.1249 73.1771 72.0833C73.1909 72.0464 73.2048 72.014 73.2186 71.9771C73.2371 71.9355 73.251 71.8939 73.2695 71.8523C73.2833 71.82 73.3018 71.783 73.3156 71.7507C73.3341 71.7091 73.3572 71.6675 73.3803 71.626C73.3988 71.5936 73.4173 71.5613 73.4358 71.529C73.4635 71.4781 73.4958 71.4319 73.5235 71.3857C73.542 71.358 73.5605 71.3257 73.579 71.298C73.6159 71.2425 73.6529 71.1917 73.6945 71.1409C73.713 71.1178 73.7268 71.0947 73.7453 71.0716C73.81 70.9884 73.8839 70.9053 73.9578 70.8221C73.9763 70.799 73.9994 70.7806 74.0179 70.7621C74.0779 70.702 74.138 70.6373 74.2026 70.5773C74.2304 70.5496 74.2627 70.5218 74.2904 70.4941C74.3274 70.4618 74.369 70.4248 74.4059 70.3925C74.4429 70.3602 74.4798 70.3278 74.5214 70.3001C74.563 70.2678 74.6046 70.2354 74.6508 70.1985C74.6923 70.1661 74.7293 70.1384 74.7709 70.1061C74.8171 70.0737 74.8633 70.0414 74.9095 70.0091C74.951 69.9813 74.9972 69.949 75.0388 69.9213C75.085 69.8889 75.1358 69.8566 75.1867 69.8289C75.2513 69.7919 75.3114 69.7503 75.3761 69.7134C75.5516 69.6118 75.741 69.5147 75.9304 69.4223C75.9813 69.3992 76.0321 69.3761 76.0783 69.353C76.2584 69.2791 76.4294 69.2052 76.6095 69.1359Z" fill="#CC096A"/>
<path d="M75.4305 74.4434L75.4259 76.4252L71.998 78.421L72.0027 76.4391L75.4305 74.4434Z" fill="#CC096A"/>
<path d="M71.9981 76.4398L71.9935 78.4216C69.4203 76.9341 68.136 74.9845 68.1406 73.0396L68.1453 71.0577C68.1406 73.0027 69.4249 74.9522 71.9981 76.4398Z" fill="#CC096A"/>
<path d="M90.3966 65.7443L86.9688 67.7354C83.7626 65.8829 78.5746 65.8829 75.387 67.7354C72.1994 69.5879 72.2179 72.5908 75.424 74.4433L71.9961 76.4344C66.882 73.4824 66.8543 68.6963 71.9361 65.7443C77.0224 62.7923 85.2825 62.7923 90.3966 65.7443Z" fill="#FF5668"/>
<path d="M86.9665 68.3457L86.9619 69.7224C88.5742 70.6556 89.3827 71.8752 89.378 73.0994L89.3827 71.1176C89.3873 69.8933 88.5834 69.2743 86.9665 68.3457Z" fill="#3278CC"/>
<path d="M90.353 77.1006L90.3484 78.4773L86.8975 76.4862L86.9021 75.1095L90.353 77.1006Z" fill="#3278CC"/>
<path d="M94.2379 71.3574C94.2333 71.4221 94.2287 71.4868 94.2241 71.5561C94.2195 71.6115 94.2102 71.6716 94.201 71.727C94.1917 71.7917 94.1825 71.8563 94.1686 71.921C94.1594 71.9765 94.1455 72.0365 94.1317 72.092C94.1178 72.1566 94.104 72.2213 94.0855 72.2814C94.0716 72.3368 94.0532 72.3969 94.0347 72.4523C94.0162 72.517 93.9931 72.577 93.97 72.6417C93.9515 72.6971 93.9284 72.7526 93.9053 72.808C93.8776 72.8727 93.8499 72.942 93.8222 73.0067C93.7991 73.0621 93.7713 73.1175 93.7436 73.173C93.7113 73.2377 93.679 73.3023 93.642 73.367C93.6143 73.4178 93.5866 73.4733 93.5542 73.5241C93.508 73.6026 93.4618 73.6812 93.411 73.7551C93.3787 73.8013 93.351 73.8475 93.3186 73.8937C93.2586 73.9768 93.1985 74.0646 93.1338 74.1478C93.1061 74.1847 93.0784 74.2217 93.0507 74.2586C92.9444 74.3926 92.8335 74.522 92.7134 74.6559C92.6811 74.6883 92.6487 74.7206 92.6164 74.7576C92.524 74.8546 92.4224 74.9562 92.3207 75.0532C92.2745 75.0994 92.2283 75.141 92.1775 75.1872C92.1175 75.2426 92.0528 75.2981 91.9881 75.3535C91.9281 75.4043 91.868 75.4551 91.8079 75.5013C91.7433 75.5568 91.674 75.6076 91.6047 75.663C91.54 75.7139 91.4753 75.76 91.4106 75.8062C91.3367 75.8571 91.2628 75.9079 91.1889 75.9633C91.1196 76.0095 91.0503 76.0557 90.981 76.1019C90.9025 76.1527 90.8239 76.2035 90.7454 76.2497C90.6438 76.3098 90.5468 76.3745 90.4451 76.4345C90.4128 76.453 90.3758 76.4715 90.3435 76.49L90.3389 78.4718C90.3712 78.4534 90.4082 78.4349 90.4405 78.4164C90.4959 78.3841 90.5468 78.3517 90.5976 78.324C90.6484 78.2963 90.69 78.264 90.7408 78.2316C90.8193 78.1808 90.9025 78.13 90.981 78.0792C91.0503 78.033 91.1196 77.9868 91.1889 77.9406C91.2628 77.8898 91.3367 77.8389 91.4106 77.7835C91.4753 77.7373 91.54 77.6865 91.6047 77.6403C91.674 77.5895 91.7433 77.534 91.8079 77.4786C91.868 77.4278 91.9281 77.377 91.9881 77.3308C92.0528 77.2753 92.1175 77.2199 92.1775 77.1645C92.2006 77.1414 92.2283 77.1183 92.2561 77.0952C92.2792 77.0721 92.2976 77.0536 92.3207 77.0305C92.4224 76.9335 92.524 76.8365 92.6164 76.7348C92.6487 76.7025 92.6811 76.6701 92.7134 76.6332C92.8335 76.5038 92.9444 76.3699 93.0507 76.2359C93.0553 76.2313 93.0599 76.2266 93.0645 76.2174C93.0876 76.1851 93.1107 76.1573 93.1338 76.125C93.1985 76.0419 93.2586 75.9587 93.3186 75.8709C93.351 75.8247 93.3787 75.7785 93.411 75.7323C93.4618 75.6538 93.508 75.5799 93.5542 75.5013C93.5681 75.4782 93.5819 75.4598 93.5912 75.4367C93.6097 75.4043 93.6235 75.372 93.642 75.3397C93.679 75.275 93.7113 75.2103 93.7436 75.1456C93.7713 75.0902 93.7944 75.0347 93.8222 74.9793C93.8499 74.9146 93.8776 74.85 93.9053 74.7807C93.9192 74.7529 93.933 74.7206 93.9423 74.6929C93.9515 74.6652 93.9608 74.6374 93.97 74.6143C93.9931 74.5497 94.0116 74.4896 94.0347 74.4249C94.0532 74.3695 94.0716 74.3094 94.0855 74.254C94.104 74.1893 94.1178 74.1293 94.1317 74.0646C94.1409 74.0323 94.1502 73.9953 94.1548 73.963C94.1594 73.9399 94.1594 73.9168 94.164 73.8937C94.1779 73.829 94.1871 73.7643 94.1964 73.6996C94.2056 73.6442 94.2102 73.5841 94.2195 73.5287C94.2241 73.464 94.2287 73.3993 94.2333 73.3301C94.2333 73.2931 94.2426 73.2515 94.2426 73.2146C94.2426 73.1776 94.2426 73.136 94.2426 73.0991L94.2472 71.1172C94.2472 71.205 94.2426 71.2789 94.2379 71.3574Z" fill="#3278CC"/>
<path d="M90.3988 66.3545C95.5129 69.3065 95.536 74.0926 90.4588 77.0446C90.4265 77.0631 90.3896 77.0816 90.3572 77.1001L86.9062 75.1089C86.9386 75.0905 86.9755 75.072 87.0079 75.0535C90.1955 73.201 90.177 70.1981 86.9709 68.3456L90.3988 66.3545Z" fill="#58AFFB"/>
<path d="M88.4169 79.3822C88.5601 79.3267 88.6987 79.2713 88.8419 79.2112C88.925 79.1743 89.0082 79.1419 89.0914 79.105C89.2392 79.0403 89.3824 78.971 89.5302 78.9017C89.5995 78.8694 89.6688 78.837 89.7381 78.8047C89.946 78.6984 90.1539 78.5922 90.3525 78.4767L90.3572 78.0332C90.1585 78.1487 89.9506 78.2549 89.7427 78.3612C89.6734 78.3935 89.6041 78.4259 89.5348 78.4582C89.3916 78.5275 89.2438 78.5968 89.1006 78.6615C89.0174 78.6984 88.9343 78.7308 88.8511 78.7677C88.7125 78.8278 88.5693 78.8832 88.4261 78.9387C88.3383 78.971 88.2506 79.0034 88.1628 79.0357C88.0149 79.0911 87.8671 79.1419 87.7193 79.1881C87.6269 79.2205 87.5345 79.2528 87.4375 79.2805C87.3682 79.3036 87.2943 79.3221 87.2203 79.3452C87.091 79.3868 86.957 79.4238 86.823 79.4607C86.7491 79.4792 86.6752 79.5023 86.6013 79.5208C86.4627 79.5577 86.3195 79.5901 86.1763 79.627C86.1116 79.6409 86.0469 79.6594 85.9776 79.6732C85.7697 79.7194 85.5572 79.7656 85.3447 79.8026V80.2461C85.5572 80.2045 85.7651 80.1629 85.973 80.1121C86.0377 80.0982 86.1024 80.0798 86.167 80.0659C86.3103 80.0336 86.4535 79.9966 86.5921 79.9596C86.666 79.9412 86.7399 79.9181 86.8138 79.8996C86.9478 79.8626 87.0771 79.8257 87.2111 79.7841C87.285 79.761 87.3543 79.7425 87.4282 79.7194C87.4652 79.7056 87.5022 79.6963 87.5391 79.6871C87.5946 79.6686 87.65 79.6455 87.71 79.627C87.8579 79.5762 88.0057 79.5254 88.1535 79.4746C88.2413 79.4468 88.3291 79.4145 88.4169 79.3822Z" fill="#E2A029"/>
<path d="M90.3558 78.033C88.896 78.8645 87.182 79.4559 85.3526 79.8023L83.7588 77.1367C84.9045 76.9196 85.9855 76.5546 86.9048 76.0372L90.3558 78.033Z" fill="#FFBE3D"/>
<path d="M84.7948 79.5165C84.6654 79.5396 84.5315 79.5581 84.4021 79.5812C84.2497 79.6043 84.0926 79.6228 83.9401 79.6413C83.8108 79.6551 83.6768 79.6736 83.5475 79.6875C83.3026 79.7106 83.0578 79.7337 82.8129 79.7522C82.7898 79.7522 82.7667 79.7568 82.7482 79.7568C82.4757 79.7753 82.2031 79.7891 81.9305 79.7937C81.8612 79.7937 81.7919 79.7983 81.7227 79.7983C81.5194 79.803 81.3207 79.803 81.1175 79.803C81.0343 79.803 80.9511 79.803 80.868 79.7983C80.6462 79.7937 80.4245 79.7891 80.1981 79.7799C80.1565 79.7799 80.115 79.7752 80.0688 79.7752C79.8054 79.7614 79.5467 79.7429 79.2834 79.7198C79.2141 79.7152 79.1448 79.706 79.0755 79.7013C78.8723 79.6829 78.6736 79.6598 78.4703 79.6367C78.3964 79.6274 78.3271 79.6182 78.2532 79.6089C77.9945 79.572 77.7358 79.535 77.4771 79.4888H77.4725C77.2184 79.4426 76.9643 79.3918 76.7148 79.341C76.6271 79.3225 76.5347 79.2994 76.4469 79.2809C76.2759 79.244 76.105 79.2024 75.9341 79.1562C75.8417 79.1331 75.7493 79.11 75.6569 79.0823C75.5091 79.0407 75.3659 78.9991 75.2226 78.9576C75.0887 78.916 74.9593 78.879 74.8253 78.8328C74.6914 78.7912 74.562 78.745 74.428 78.6988C74.2987 78.6527 74.1693 78.6065 74.0446 78.5603C73.8506 78.4863 73.6612 78.4124 73.4718 78.3293C73.4533 78.32 73.4348 78.3154 73.4163 78.3062C73.1992 78.2092 72.9821 78.1121 72.7742 78.0059C72.7234 77.9828 72.6725 77.9551 72.6217 77.9273C72.4092 77.8211 72.2013 77.7102 72.0027 77.5947L71.998 78.4217C72.2013 78.5372 72.4092 78.648 72.6171 78.7543C72.6679 78.782 72.7187 78.8051 72.7695 78.8328C72.9821 78.9345 73.1946 79.0361 73.4117 79.1331C73.4302 79.1423 73.4487 79.147 73.4671 79.1562C73.6057 79.2163 73.7443 79.2763 73.8875 79.3318C73.9383 79.3502 73.9892 79.3687 74.04 79.3872C74.1693 79.438 74.2941 79.4842 74.4234 79.5258C74.5528 79.572 74.6867 79.6182 74.8207 79.6598C74.9501 79.7013 75.084 79.7429 75.218 79.7845C75.3012 79.8076 75.3797 79.8353 75.4583 79.8584C75.5229 79.8769 75.5876 79.8907 75.6523 79.9092C75.7447 79.9323 75.8371 79.96 75.9295 79.9831C76.1004 80.0247 76.2713 80.0663 76.4423 80.1079C76.53 80.1264 76.6178 80.1495 76.7102 80.1679C76.7472 80.1772 76.7887 80.1864 76.8257 80.1956C77.0382 80.2418 77.2507 80.2788 77.4678 80.3158C77.4725 80.3158 77.4725 80.3158 77.4771 80.3158C77.6896 80.3527 77.9021 80.3851 78.1146 80.4174C78.1608 80.422 78.2024 80.4266 78.2486 80.4359C78.3225 80.4451 78.3918 80.4544 78.4657 80.4636C78.6644 80.4867 78.8676 80.5098 79.0709 80.5283C79.1402 80.5329 79.2095 80.5421 79.2788 80.5468C79.3158 80.5514 79.3481 80.556 79.3851 80.556C79.6114 80.5745 79.8378 80.5883 80.0642 80.6022C80.1057 80.6022 80.1519 80.6068 80.1935 80.6068C80.3506 80.616 80.5123 80.6207 80.6693 80.6253C80.734 80.6253 80.7941 80.6253 80.8588 80.6253C80.9419 80.6253 81.0251 80.6253 81.1082 80.6299C81.3115 80.6299 81.5101 80.6299 81.7134 80.6253C81.7827 80.6253 81.852 80.6253 81.9213 80.6207C81.949 80.6207 81.9767 80.6207 82.0045 80.6207C82.2493 80.6114 82.4941 80.5976 82.739 80.5837C82.7621 80.5837 82.7852 80.5791 82.8037 80.5791C83.0208 80.5652 83.2333 80.5468 83.4504 80.5237C83.4782 80.519 83.5105 80.5144 83.5382 80.5144C83.6722 80.5006 83.8015 80.4821 83.9309 80.4682C84.0833 80.4497 84.2404 80.4313 84.3929 80.4082C84.5268 80.3897 84.6562 80.3666 84.7856 80.3435C84.8964 80.325 85.0119 80.3111 85.1228 80.288C85.1967 80.2742 85.2706 80.2603 85.3492 80.2465L85.3538 79.4195C85.169 79.4565 84.9796 79.4888 84.7948 79.5165Z" fill="#7974F5"/>
<path d="M83.7573 76.7536L85.3511 79.4192C80.8191 80.2877 75.6173 79.6825 72 77.5897L75.4279 75.5986C77.6869 76.906 80.9254 77.2895 83.7573 76.7536Z" fill="#B391FF"/>
<path d="M91.1342 0.448117C91.0973 0.429638 91.0649 0.406539 91.0326 0.38806C90.9864 0.364961 90.9448 0.341862 90.8986 0.318764C90.8524 0.295665 90.8108 0.277186 90.7646 0.258707C90.7231 0.240228 90.6769 0.221749 90.6353 0.20327C90.5891 0.184791 90.5475 0.170931 90.5013 0.152452C90.4921 0.147832 90.4828 0.147832 90.4782 0.143213C90.4736 0.143213 90.4736 0.143213 90.469 0.138593C90.4366 0.129353 90.4043 0.115494 90.372 0.106255C90.3258 0.0923953 90.2796 0.078536 90.238 0.0692964C90.1918 0.0600569 90.1502 0.0461976 90.104 0.0415779C90.0578 0.0323383 90.007 0.0230988 89.9608 0.0184791C89.9285 0.0138593 89.8961 0.0138593 89.8638 0.00923953C89.8592 0.00923953 89.8546 0.00923953 89.8499 0.00923953C89.8361 0.00923953 89.8268 0.00461976 89.813 0.00461976C89.7622 0 89.7113 0 89.6605 0C89.6051 0 89.545 0.00461976 89.4896 0.00923953C89.4249 0.0138593 89.3649 0.0230988 89.3002 0.0369581H89.2956H89.2909C89.217 0.0508174 89.1431 0.0739162 89.0738 0.097015C88.9814 0.129353 88.8936 0.170931 88.8105 0.217129L86.6484 1.4737C86.7963 1.38593 86.958 1.32587 87.1289 1.29353C87.1335 1.29353 87.1335 1.29353 87.1335 1.29353C87.3044 1.25658 87.4892 1.24734 87.6833 1.26582C87.6879 1.26582 87.6925 1.26582 87.6971 1.26582C87.8912 1.28429 88.0898 1.32587 88.3023 1.39517C88.3069 1.39517 88.3069 1.39517 88.3116 1.39979C88.5241 1.4737 88.7458 1.57072 88.9676 1.70469L149.394 36.5931L151.556 35.3366L91.1342 0.448117Z" fill="url(#paint2_linear_223_1956)"/>
<path d="M154.81 40.8206C154.81 40.7698 154.805 40.7143 154.8 40.6635C154.796 40.6127 154.791 40.5572 154.787 40.5064C154.782 40.4556 154.777 40.4002 154.768 40.3447C154.763 40.2893 154.754 40.2339 154.745 40.183V40.1784C154.745 40.1784 154.745 40.1784 154.745 40.1738C154.736 40.123 154.726 40.0676 154.717 40.0167C154.708 39.9613 154.694 39.9012 154.685 39.8458C154.671 39.7904 154.657 39.7303 154.643 39.6749C154.629 39.6148 154.616 39.5594 154.597 39.4993C154.583 39.4531 154.569 39.4115 154.56 39.3653C154.56 39.3607 154.56 39.3561 154.556 39.3561C154.551 39.3469 154.551 39.3376 154.546 39.3284C154.528 39.273 154.509 39.2175 154.491 39.1575C154.472 39.102 154.454 39.0466 154.431 38.9911C154.412 38.9357 154.394 38.8849 154.371 38.8295C154.352 38.7786 154.329 38.7232 154.306 38.6724C154.288 38.6308 154.274 38.5938 154.255 38.5523C154.255 38.5476 154.255 38.5477 154.251 38.543C154.246 38.5338 154.241 38.5246 154.237 38.5153C154.214 38.4645 154.191 38.4091 154.163 38.3582C154.135 38.3028 154.107 38.2427 154.08 38.1873C154.047 38.1226 154.015 38.058 153.978 37.9933C153.941 37.924 153.9 37.8547 153.863 37.7854C153.858 37.7715 153.849 37.7623 153.844 37.7484C153.835 37.7346 153.83 37.7207 153.821 37.7069C153.742 37.5775 153.664 37.4481 153.581 37.3234C153.516 37.2218 153.447 37.1248 153.373 37.0277C153.327 36.9631 153.276 36.8984 153.23 36.8383C153.188 36.7875 153.146 36.7321 153.105 36.6813C153.063 36.6304 153.022 36.5843 152.98 36.5334C152.939 36.4872 152.897 36.441 152.855 36.3948C152.846 36.3856 152.837 36.3764 152.828 36.3671C152.823 36.3625 152.823 36.3625 152.818 36.3579C152.786 36.3209 152.754 36.2886 152.721 36.2562C152.675 36.2101 152.629 36.1639 152.583 36.1223C152.537 36.0761 152.486 36.0345 152.44 35.9883C152.393 35.9467 152.343 35.9051 152.296 35.8636C152.273 35.8451 152.246 35.822 152.223 35.8035C152.218 35.7989 152.213 35.7943 152.204 35.7897C152.186 35.7758 152.167 35.7573 152.149 35.7435C152.102 35.7065 152.052 35.6695 152.005 35.6326C151.959 35.6002 151.913 35.5633 151.862 35.5309C151.816 35.4986 151.77 35.4709 151.724 35.4385C151.677 35.4108 151.631 35.3831 151.585 35.3554C151.576 35.3508 151.562 35.3415 151.553 35.3369L149.391 36.5935C149.612 36.7228 149.83 36.8753 150.042 37.0416C150.047 37.0462 150.051 37.0508 150.06 37.0555C150.268 37.2264 150.467 37.4112 150.661 37.6145C150.666 37.6191 150.666 37.6191 150.67 37.6237C151.054 38.0349 151.4 38.5061 151.691 39.0096C151.701 39.0235 151.705 39.0327 151.71 39.0466C151.853 39.2914 151.982 39.5455 152.093 39.8042C152.093 39.8088 152.098 39.8088 152.098 39.8135C152.213 40.0768 152.31 40.3447 152.393 40.6127C152.393 40.6173 152.393 40.6219 152.398 40.6219C152.477 40.8899 152.541 41.1624 152.583 41.4258C152.583 41.4258 152.583 41.4258 152.583 41.4304C152.624 41.6983 152.648 41.9663 152.648 42.225L152.532 83.5118C152.532 83.7659 152.509 84.0015 152.467 84.214C152.467 84.2186 152.463 84.2279 152.463 84.2325C152.421 84.445 152.357 84.6344 152.278 84.8053C152.278 84.81 152.273 84.8146 152.273 84.8146C152.204 84.9578 152.121 85.0779 152.029 85.1934C152.001 85.2304 151.968 85.2719 151.936 85.3043C151.83 85.4198 151.71 85.5214 151.58 85.5999L153.742 84.3434C153.876 84.2648 153.992 84.1632 154.098 84.0477C154.131 84.0154 154.158 83.9738 154.191 83.9368C154.228 83.886 154.274 83.8444 154.306 83.789C154.352 83.7197 154.394 83.6458 154.431 83.5672C154.431 83.5626 154.435 83.558 154.435 83.558C154.435 83.5534 154.44 83.5534 154.44 83.5488C154.463 83.4933 154.486 83.4425 154.509 83.3825C154.528 83.327 154.551 83.2716 154.565 83.2115C154.579 83.1561 154.597 83.1006 154.606 83.0452C154.611 83.0221 154.616 82.999 154.62 82.9713C154.62 82.9667 154.625 82.9574 154.625 82.9528C154.629 82.9297 154.634 82.9066 154.639 82.8835C154.648 82.8327 154.657 82.7819 154.662 82.7265C154.666 82.6756 154.676 82.6248 154.68 82.5694C154.685 82.5186 154.689 82.4677 154.689 82.4169C154.689 82.3661 154.694 82.3107 154.694 82.2599C154.694 82.2552 154.694 82.2552 154.694 82.2506L154.81 40.9638C154.814 40.9176 154.814 40.8714 154.81 40.8206Z" fill="url(#paint3_linear_223_1956)"/>
<path d="M149.399 36.593C151.201 37.6325 152.656 40.1549 152.652 42.2245L152.536 83.5113C152.532 85.581 151.067 86.4172 149.261 85.3777L88.8344 50.4893C87.0326 49.4498 85.5774 46.9274 85.582 44.8578L85.6975 3.57097C85.7022 1.50132 87.1666 0.66514 88.9729 1.70459L149.399 36.593Z" fill="#343996"/>
<path d="M131.886 19.6622C132.454 19.9902 132.912 20.7801 132.907 21.4315L132.87 34.4084C132.87 35.0598 132.408 35.3232 131.84 34.9952L112.848 24.0278C112.28 23.6998 111.823 22.9099 111.827 22.2585L111.864 9.28156C111.864 8.63017 112.326 8.36684 112.894 8.69485L131.886 19.6622Z" fill="#2689FD"/>
<path d="M95.931 13.906V14.4974C95.931 14.8438 95.5522 15.061 95.2519 14.8854L92.4754 13.2731C92.3368 13.19 92.249 13.0421 92.249 12.8804V12.2891C92.249 11.9426 92.6278 11.7255 92.9281 11.9011L95.7046 13.5134C95.8478 13.5965 95.931 13.7443 95.931 13.906Z" fill="white"/>
<path d="M104.721 21.9082V22.4996C104.721 22.846 104.347 23.0632 104.042 22.8876L92.4646 16.2028C92.3261 16.1243 92.2383 15.9718 92.2383 15.8101V15.2188C92.2383 14.8723 92.6125 14.6552 92.9174 14.8307L104.495 21.5155C104.633 21.5987 104.721 21.7465 104.721 21.9082Z" fill="#1AE5FF"/>
<path d="M90.6035 41.1991L95.214 38.8477L98.2261 43.7215L101.589 47.1401L104.953 45.1121L112.141 42.7929L115.389 47.4312L118.636 50.0968L121.593 54.444L125.594 46.036L130.463 48.3551L133.013 46.2716L138.289 47.6622L146.115 46.9646" stroke="#16C5DC" stroke-miterlimit="10"/>
<path d="M117.861 14.6676C116.11 13.6559 114.456 13.9146 113.772 15.5084C112.918 17.4996 113.888 20.8535 115.953 23.168L116.433 22.0546C115.038 20.4239 114.387 18.1232 114.978 16.7465C115.463 15.6239 116.627 15.4438 117.861 16.1552C118.161 16.3308 118.466 16.5571 118.766 16.8343L119.247 15.7209C118.78 15.2821 118.318 14.931 117.861 14.6676Z" fill="#F1F1F1"/>
<path d="M119.24 15.7207L118.764 16.8341C118.838 16.9034 118.916 16.9773 118.99 17.0558C120.579 18.6912 121.351 21.2044 120.723 22.6688C120.7 22.7196 120.676 22.7705 120.649 22.8213C120.64 22.8398 120.63 22.8582 120.621 22.8721C120.164 23.6806 119.281 23.8792 118.307 23.4865C118.154 23.4265 117.997 23.3479 117.845 23.2602C117.803 23.2371 117.761 23.2093 117.72 23.1862C117.646 23.14 117.586 23.0985 117.53 23.0615L117.503 23.043C117.378 22.9553 117.253 22.8582 117.128 22.752C117.115 22.7381 117.096 22.7243 117.082 22.7104C117.036 22.6688 116.99 22.6272 116.944 22.5857C116.925 22.5718 116.911 22.5533 116.893 22.5395C116.833 22.484 116.773 22.424 116.713 22.3639C116.616 22.2623 116.523 22.1607 116.436 22.059L115.955 23.1724C116.047 23.274 116.14 23.3757 116.232 23.4727C116.315 23.5604 116.403 23.6436 116.491 23.7268C116.514 23.7499 116.537 23.773 116.565 23.796C116.63 23.8561 116.694 23.9162 116.764 23.9716C116.787 23.9901 116.81 24.0086 116.828 24.0317C117.004 24.1841 117.184 24.3227 117.359 24.4474C117.373 24.4567 117.387 24.4659 117.401 24.4752C117.484 24.5306 117.563 24.586 117.646 24.6368L117.674 24.6553C117.729 24.6877 117.785 24.7246 117.84 24.7523C117.969 24.8263 118.103 24.8956 118.233 24.9602C118.33 25.0064 118.422 25.048 118.514 25.085C120.002 25.6763 121.332 25.3021 121.928 23.9162C122.82 21.8373 121.721 18.2708 119.471 15.9517C119.392 15.8639 119.314 15.79 119.24 15.7207Z" fill="#FDB913"/>
<path d="M126.081 21.8562V22.1981C126.081 22.3967 125.864 22.5215 125.688 22.4245L124.081 21.4913C124.002 21.4451 123.951 21.3573 123.951 21.2649V20.923C123.951 20.7244 124.168 20.5997 124.344 20.6967L125.952 21.6299C126.03 21.6761 126.081 21.7638 126.081 21.8562Z" fill="white"/>
<path d="M131.162 26.4805V26.8223C131.162 27.021 130.945 27.1457 130.769 27.0487L124.08 23.1866C123.996 23.1404 123.95 23.0526 123.95 22.9602V22.6183C123.95 22.4197 124.167 22.295 124.343 22.392L131.032 26.2541C131.111 26.3003 131.162 26.3881 131.162 26.4805Z" fill="white"/>
<g opacity="0.53">
<path opacity="0.53" d="M128.39 28.2783V28.6201C128.39 28.8188 128.173 28.9435 127.997 28.8465L124.066 26.5782C123.983 26.532 123.937 26.4442 123.937 26.3518V26.0099C123.937 25.8113 124.154 25.6866 124.329 25.7836L128.261 28.0519C128.344 28.1027 128.39 28.1859 128.39 28.2783Z" fill="white"/>
</g>
<path d="M130.118 27.5798V27.9217C130.118 28.1203 129.901 28.2451 129.725 28.1481L124.071 24.8819C123.988 24.8357 123.941 24.7479 123.941 24.6555V24.3137C123.941 24.115 124.159 23.9903 124.334 24.0873L129.989 27.3535C130.067 27.3997 130.118 27.4828 130.118 27.5798Z" fill="#58AFFB"/>
<path d="M146.133 42.6872C144.183 41.5599 142.594 42.47 142.585 44.706C142.58 46.9466 144.16 49.6722 146.11 50.7995C148.059 51.9267 149.639 51.0212 149.649 48.7852C149.653 46.5447 148.082 43.8098 146.133 42.6872Z" fill="#FF4272"/>
<path d="M146.124 44.9093C145.241 44.4012 144.525 44.8123 144.521 45.8241C144.516 46.8358 145.232 48.0693 146.114 48.5774C146.997 49.0856 147.713 48.6791 147.713 47.6673C147.713 46.651 147.006 45.4175 146.124 44.9093Z" fill="#212973"/>
<path d="M96.1761 21.5328V22.1426C96.1761 22.503 95.788 22.7247 95.4785 22.5445L92.605 20.8907C92.4618 20.8075 92.374 20.655 92.374 20.4887V19.8789C92.374 19.5186 92.7621 19.2968 93.0716 19.477L95.9451 21.1309C96.0883 21.214 96.1761 21.3665 96.1761 21.5328Z" fill="#1CE5FF"/>
<path d="M105.268 29.7604V30.3702C105.268 30.7259 104.879 30.9523 104.57 30.7721L92.6047 23.9164C92.4615 23.8333 92.3691 23.6808 92.3691 23.5145V22.9047C92.3691 22.549 92.7572 22.3226 93.0667 22.5028L105.032 29.3631C105.18 29.4416 105.268 29.5941 105.268 29.7604Z" fill="#1CE5FF"/>
<g opacity="0.53">
<path opacity="0.53" d="M100.338 32.9858V33.5957C100.338 33.9514 99.9504 34.1777 99.6409 33.9976L92.6096 29.9691C92.4664 29.886 92.374 29.7335 92.374 29.5672V28.9574C92.374 28.6017 92.7621 28.3753 93.0716 28.5555L100.103 32.5839C100.246 32.6625 100.338 32.8195 100.338 32.9858Z" fill="#1CE5FF"/>
</g>
<path d="M103.415 31.7242V32.334C103.415 32.6898 103.027 32.9161 102.718 32.736L92.6096 26.9428C92.4664 26.8596 92.374 26.7072 92.374 26.5409V25.931C92.374 25.5753 92.7621 25.349 93.0716 25.5291L103.18 31.3223C103.323 31.4008 103.415 31.5579 103.415 31.7242Z" fill="#1CE5FF"/>
<path d="M137.453 73.0106L139.084 72.0636L139.052 83.1372L137.421 84.0842L137.453 73.0106Z" fill="#00A935"/>
<path d="M140.782 72.7152C140.782 72.7105 140.782 72.7059 140.782 72.7013C140.782 72.6967 140.782 72.6921 140.782 72.6874C140.782 72.6828 140.782 72.6782 140.782 72.6736C140.782 72.669 140.782 72.6643 140.782 72.6597C140.782 72.6551 140.782 72.6505 140.782 72.6459C140.782 72.6412 140.782 72.6366 140.778 72.632C140.778 72.6274 140.778 72.6228 140.773 72.6181C140.773 72.6181 140.773 72.6181 140.773 72.6135C140.773 72.6089 140.773 72.6043 140.768 72.6043C140.768 72.5997 140.764 72.595 140.764 72.5904C140.764 72.5858 140.759 72.5812 140.759 72.5766C140.759 72.5719 140.754 72.5673 140.754 72.5627C140.754 72.5581 140.75 72.5535 140.75 72.5488C140.75 72.5442 140.745 72.5396 140.745 72.535C140.745 72.5304 140.741 72.5257 140.741 72.5211C140.741 72.5165 140.736 72.5119 140.736 72.5073C140.736 72.5026 140.731 72.498 140.731 72.4934C140.727 72.4888 140.727 72.4842 140.722 72.4796L135.645 62.3715C135.645 62.3669 135.64 62.3623 135.64 62.3576C135.636 62.3484 135.631 62.3392 135.627 62.3345C135.617 62.3207 135.608 62.3068 135.603 62.293C135.599 62.2837 135.594 62.2791 135.585 62.2699C135.58 62.2653 135.576 62.2606 135.571 62.256C135.567 62.2514 135.562 62.2468 135.562 62.2422C135.557 62.2375 135.553 62.2329 135.553 62.2283L135.548 62.2237L135.543 62.2191C135.539 62.2144 135.534 62.2098 135.53 62.2052C135.525 62.2006 135.52 62.196 135.516 62.1913C135.511 62.1867 135.506 62.1821 135.502 62.1775C135.497 62.1729 135.493 62.1682 135.488 62.1682C135.483 62.1636 135.479 62.159 135.474 62.159C135.469 62.1544 135.465 62.1544 135.46 62.1498C135.456 62.1451 135.451 62.1451 135.446 62.1405C135.442 62.1359 135.437 62.1359 135.433 62.1313C135.428 62.1267 135.423 62.1267 135.419 62.122C135.419 62.122 135.419 62.122 135.414 62.122C135.409 62.122 135.409 62.1174 135.405 62.1174C135.4 62.1174 135.396 62.1128 135.391 62.1128C135.386 62.1128 135.382 62.1082 135.377 62.1082C135.372 62.1082 135.368 62.1036 135.363 62.1036C135.359 62.1036 135.354 62.0989 135.349 62.0989C135.345 62.0989 135.34 62.0943 135.336 62.0943C135.331 62.0943 135.326 62.0943 135.322 62.0897C135.317 62.0897 135.312 62.0897 135.308 62.0851C135.303 62.0851 135.299 62.0851 135.294 62.0851H135.289C135.285 62.0851 135.285 62.0851 135.28 62.0851C135.275 62.0851 135.271 62.0851 135.266 62.0851C135.262 62.0851 135.257 62.0851 135.252 62.0851C135.248 62.0851 135.243 62.0851 135.234 62.0897C135.229 62.0897 135.22 62.0943 135.215 62.0943C135.206 62.0989 135.197 62.0989 135.192 62.1036L133.562 63.0506C133.589 63.0321 133.622 63.0275 133.659 63.0321C133.696 63.0368 133.732 63.0506 133.769 63.0691C133.811 63.0922 133.853 63.1245 133.89 63.1661C133.926 63.2077 133.963 63.2585 133.991 63.3139L139.068 73.422C139.091 73.4728 139.11 73.519 139.119 73.5652C139.128 73.6114 139.133 73.653 139.128 73.6899C139.124 73.7269 139.114 73.7592 139.101 73.7869C139.087 73.8147 139.068 73.8331 139.045 73.847L140.676 72.9C140.694 72.8907 140.713 72.8722 140.727 72.8538C140.731 72.8491 140.731 72.8445 140.736 72.8399C140.736 72.8399 140.736 72.8353 140.741 72.8353C140.745 72.8307 140.745 72.8214 140.75 72.8168C140.75 72.8122 140.754 72.8076 140.754 72.8029C140.754 72.7983 140.759 72.7937 140.759 72.7891C140.759 72.7845 140.759 72.7798 140.764 72.7752C140.764 72.7706 140.764 72.766 140.764 72.7614C140.764 72.7567 140.764 72.7521 140.764 72.7475C140.764 72.7429 140.764 72.7383 140.764 72.7383C140.782 72.7244 140.782 72.7198 140.782 72.7152Z" fill="#61E041"/>
<path d="M133.789 63.0641C133.872 63.1103 133.95 63.1981 134.01 63.3136L139.088 73.4217C139.235 73.7219 139.106 73.9668 138.866 73.8282L137.452 73.0105L137.42 84.0841L130.001 79.8016L130.033 68.728L128.665 67.938C128.425 67.7994 128.291 67.4021 128.444 67.2774L133.562 63.0549C133.622 63.0087 133.706 63.0179 133.789 63.0641Z" fill="#00CC41"/>
<path d="M81.1416 86.6718L95.814 101.654L110.066 97.9487L95.3936 82.9668L81.1416 86.6718Z" fill="white"/>
<path d="M96.8969 87.5908L95.4925 88.1221C94.4345 87.2952 92.6051 86.9995 91.367 87.4707C91.3393 87.4799 91.3162 87.4892 91.2931 87.503L90.1289 86.5421C90.152 86.5329 90.1797 86.5237 90.2028 86.5144C92.217 85.7475 95.1968 86.2326 96.8969 87.5908Z" fill="#E2EDFF"/>
<path d="M97.078 87.7383C98.4408 88.944 98.3623 90.39 96.9763 91.2354L95.7752 90.2468C96.4081 89.7248 96.3942 88.944 95.6689 88.2742L97.078 87.7383Z" fill="#E2EDFF"/>
<path d="M96.7862 91.3414C96.643 91.4153 96.4905 91.4846 96.3242 91.5493C94.3377 92.3023 91.4134 91.8404 89.7041 90.5283L91.1085 89.9971C92.1757 90.7824 93.9497 91.0504 95.16 90.593C95.3264 90.5283 95.4742 90.4544 95.6035 90.3713L96.7862 91.3414Z" fill="#3EABFF"/>
<path d="M91.0892 87.5954C90.1052 88.1082 90.0174 89.0645 90.9229 89.8499L89.5184 90.3811C87.9662 89.0645 88.1602 87.443 89.9157 86.6299L91.0892 87.5954Z" fill="#3EABFF"/>
<path d="M95.4401 160.763C95.4401 160.763 94.2898 161.553 95.3662 163.424C96.4426 165.295 97.3804 164.144 99.8243 166.011C102.268 167.882 103.132 168.242 104.426 168.094C105.719 167.951 106.509 167.304 106.726 166.584C106.943 165.863 106.297 164.643 106.297 164.643L95.4401 160.763Z" fill="#94A3C0"/>
<path d="M105.798 160.832C105.798 160.832 106.301 163.276 106.588 165.147C106.661 166.011 105.511 167.184 103.853 167.11C102.199 167.036 101.266 166.533 100.688 165.817C100.111 165.096 96.5165 163.706 95.8697 163.133C95.223 162.555 95.0797 160.832 95.3662 160.398C95.6526 159.968 96.7336 159.248 97.8839 159.751C99.0343 160.255 99.9675 161.188 102.273 161.331C104.573 161.483 105.798 160.832 105.798 160.832Z" fill="#382747"/>
<path d="M106.85 154.531C106.85 154.531 105.7 155.321 106.776 157.192C107.853 159.063 108.791 157.913 111.234 159.779C113.678 161.65 114.542 162.011 115.836 161.863C117.129 161.72 117.919 161.073 118.136 160.352C118.353 159.631 117.707 158.412 117.707 158.412L106.85 154.531Z" fill="#94A3C0"/>
<path d="M117.203 154.601C117.203 154.601 117.706 157.044 117.993 158.916C118.067 159.779 116.916 160.953 115.258 160.879C113.604 160.805 112.671 160.301 112.093 159.585C111.516 158.865 107.922 157.474 107.275 156.901C106.628 156.324 106.485 154.601 106.771 154.166C107.058 153.737 108.139 153.016 109.289 153.52C110.44 154.023 111.373 154.956 113.678 155.1C115.983 155.252 117.203 154.601 117.203 154.601Z" fill="#382747"/>
<path d="M108.265 134.708C108.842 139.309 111.143 151.39 111.526 155.612C111.526 155.612 112.487 157.146 115.361 156.763L116.728 156.194C117.278 155.963 117.606 155.4 117.537 154.808C117.246 152.48 116.599 146.622 116.899 143.148C117.283 138.736 116.132 136.052 116.132 136.052C116.229 134.615 116.419 129.626 113.545 128.286C113.541 128.282 106.491 126.988 108.265 134.708Z" fill="#14347C"/>
<path d="M114.113 130.393L113.346 131.927C113.346 131.927 101.552 132.504 98.3877 135.955C98.3877 135.955 96.2765 136.339 96.8539 140.94C97.4314 145.541 99.7321 157.622 100.115 161.844C100.115 161.844 101.076 163.378 103.95 162.995L105.317 162.426C105.867 162.195 106.195 161.632 106.126 161.041C105.835 158.712 105.188 152.854 105.488 149.38C105.872 144.968 104.721 142.284 104.721 142.284C104.721 142.284 109.9 143.245 115.462 145.546C121.025 147.846 125.82 145.162 127.926 144.012C130.033 142.862 130.805 142.095 130.805 142.095C130.805 142.095 133.489 142.095 135.983 139.984C138.478 137.872 138.861 132.315 136.177 129.053C133.484 125.792 114.113 130.393 114.113 130.393Z" fill="#18388F"/>
<path d="M118.333 101.242C118.333 101.242 120.241 100.535 120.112 97.9899C119.534 95.4814 118.832 95.3151 118.832 95.3151C118.832 95.3151 121.498 92.8527 124.713 93.6288C124.713 93.6288 126.699 97.6573 128.945 99.3851C128.949 99.3851 127.157 104.12 118.333 101.242Z" fill="#CE7C56"/>
<path d="M122.502 102.684C122.502 102.684 129.547 96.7894 130.988 96.6415C132.716 96.4983 134.874 97.0712 135.446 99.5196C136.024 101.964 134.726 103.835 133.432 104.555C132.139 105.276 120.774 110.741 118.76 110.741C116.746 110.741 115.452 109.013 116.746 106.856C118.044 104.694 122.502 102.684 122.502 102.684Z" fill="#E2A029"/>
<path d="M124.659 98.7526C124.659 98.7526 117.18 101.247 115.073 104.698C112.967 108.149 113.346 111.984 114.879 117.356C116.413 122.725 113.346 127.52 114.112 130.398C114.879 133.276 120.248 135.96 128.11 134.616C135.973 133.272 136.546 130.204 137.124 128.481C137.701 126.753 135.59 118.507 137.507 111.799C139.424 105.086 135.59 100.485 134.056 99.3347C132.522 98.1752 129.455 96.6414 124.659 98.7526Z" fill="#FFBE3D"/>
<path d="M134.056 99.3252C132.522 98.1749 129.455 96.6411 124.66 98.7477C124.66 98.7477 117.18 101.242 115.074 104.693C114.561 105.53 114.2 106.389 113.965 107.29C116.995 103.354 121.292 101.626 124.087 108.338C126.697 114.603 120.054 133.022 114.251 127.233C114.006 128.439 113.877 129.506 114.117 130.393C114.884 133.271 120.252 135.955 128.115 134.611C135.978 133.267 136.551 130.199 137.128 128.476C137.706 126.748 135.595 118.502 137.512 111.794C139.424 105.081 135.59 100.476 134.056 99.3252Z" fill="#E2A029"/>
<path d="M117.518 102.009C117.518 102.009 119.532 103.303 124.563 102.587C129.598 101.866 129.885 98.272 129.45 97.9856C129.021 97.6991 128.157 96.5488 128.157 96.5488C128.157 96.5488 122.835 98.9927 120.964 99.7134C119.093 100.434 118.086 100.864 118.086 100.864L117.518 102.009Z" fill="white"/>
<path d="M114.209 86.3341C114.209 86.3341 113.78 91.5128 116.51 94.9638C119.245 98.4147 121.975 96.4005 123.703 95.5412C125.431 94.6773 126.147 93.2406 126.724 89.069C127.302 84.8973 127.302 80.8689 124.28 79.5753C121.259 78.2818 117.951 77.9954 116.08 81.1553C114.209 84.3198 114.209 86.3341 114.209 86.3341Z" fill="#FFAA83"/>
<path d="M116.224 80.1483C116.224 80.1483 113.78 82.0193 113.924 84.7496C114.067 87.4845 113.203 87.9141 113.494 89.3509C113.78 90.7876 116.081 91.2219 116.229 93.2361C116.372 95.2503 119.393 95.971 120.973 96.5439C122.553 97.1213 125.145 95.2503 125.861 94.2432C126.582 93.2361 126.439 90.649 127.298 88.3484C128.162 86.0478 127.727 83.1696 127.011 81.1554C126.291 79.1412 124.854 78.7116 124.854 78.7116C124.854 78.7116 124.133 77.1316 122.41 76.8406C120.682 76.5541 115.36 76.8406 116.224 80.1483Z" fill="#4D2C63"/>
<path d="M139.279 165.198C139.016 168.099 136.285 170.072 133.823 171.135C131.139 172.29 128.191 172.756 125.276 172.719C122.306 172.682 119.271 172.114 116.591 170.793C114.254 169.642 111.773 167.554 111.777 164.718C111.773 166.783 111.916 168.492 113.404 170.104C115.321 172.183 118.208 173.301 120.925 173.86C126.223 174.955 133.435 174.424 137.463 170.349C139.085 168.709 139.302 166.977 139.311 164.796C139.307 164.93 139.297 165.064 139.279 165.198Z" fill="#ADCDFC"/>
<path d="M135.244 159.114C140.636 162.227 140.673 167.277 135.314 170.39C129.955 173.504 121.233 173.504 115.841 170.39C110.45 167.277 110.427 162.227 115.786 159.114C121.14 156 129.853 156 135.244 159.114Z" fill="#E2EDFF"/>
<path d="M127.994 152.821L127.962 164.851L125.855 166.075L125.892 154.046L127.994 152.821Z" fill="#C7D8F2"/>
<path d="M125.892 154.046L125.855 166.075L123.739 164.851L123.772 152.821L125.892 154.046Z" fill="#7BAEFF"/>
<path d="M127.994 152.822L125.892 154.046L123.771 152.822L125.878 151.598L127.994 152.822Z" fill="#4DA5DC"/>
<path d="M152.537 111.734C152.477 110.066 150.823 108.929 149.248 109.484C142.369 111.895 126.602 117.61 125.59 119.638C124.625 121.569 121.506 132.352 119.972 137.757C119.529 139.318 117.732 140.034 116.332 139.207L106.802 133.59C104.991 132.522 102.755 134.056 103.096 136.131L104.626 145.31C104.746 146.045 105.194 146.682 105.836 147.052L116.032 152.909C121.728 156.185 128.69 156.384 134.566 153.445L142.425 149.514C149.299 146.077 153.53 138.939 153.249 131.261L152.537 111.734Z" fill="#3278CC"/>
<path d="M125.585 119.638C124.62 121.569 121.501 132.351 119.968 137.757C119.524 139.318 117.727 140.034 116.327 139.207L106.797 133.59C104.986 132.522 102.75 134.056 103.092 136.13L104.621 145.31C104.658 145.522 104.727 145.726 104.815 145.92C104.935 146.109 105.06 146.303 105.184 146.493C105.369 146.71 105.577 146.908 105.831 147.052L116.027 152.909C118.189 154.152 120.527 154.947 122.924 155.302C131.194 148.886 130.154 122.096 127.151 119.846C126.708 119.513 126.315 119.305 125.969 119.194C125.788 119.356 125.654 119.504 125.585 119.638Z" fill="#3AAEEF"/>
<path d="M107.16 111.504C107.16 111.504 114.205 105.609 115.647 105.461C117.374 105.318 119.532 105.891 120.105 108.339C120.682 110.783 119.384 112.654 118.09 113.375C116.797 114.095 105.432 119.56 103.418 119.56C101.404 119.56 100.11 117.833 101.404 115.675C102.702 113.518 107.16 111.504 107.16 111.504Z" fill="#FFBE3D"/>
<path d="M97.2374 102.153C97.2374 102.153 96.877 101.432 96.8077 100.928C96.7338 100.425 97.0249 99.778 96.7338 98.6276C96.4474 97.4773 95.9438 96.4702 95.7267 95.6802C95.1492 94.9595 94.6457 96.2577 95.0799 97.3341C95.5142 98.4105 95.3664 99.0619 94.9367 99.1312C94.5071 99.2051 92.7054 98.1241 92.2018 97.5512C91.6983 96.9738 88.8202 94.1696 88.5337 94.5299C88.2473 94.8902 88.2473 95.2506 89.2544 96.327C90.2615 97.4034 90.6219 97.9069 90.6912 98.198C90.7651 98.4844 90.6912 98.7755 91.0515 99.6347C91.4118 100.499 91.1254 101.071 91.7722 101.866C92.419 102.656 93.6432 102.799 94.216 103.303C94.7935 103.806 94.7935 103.806 94.7935 103.806L97.2374 102.153Z" fill="#FFAA83"/>
<path d="M103.423 119.56C103.423 119.56 100.402 120.137 98.7709 116.779C97.1401 113.425 94.359 104.412 93.9756 103.548C93.9756 103.548 94.9365 101.437 97.3295 101.534C97.3295 101.534 100.014 106.809 101.547 109.202C103.086 111.6 108.551 118.599 103.423 119.56Z" fill="#FFBE3D"/>
<path d="M58.9779 62.3907C58.9779 62.3907 59.9157 61.7947 60.4701 61.9657C61.0245 62.1366 62.9417 62.4323 63.5376 62.4785C64.1336 62.52 65.3255 61.4575 65.538 61.2866C65.7505 61.1156 65.8798 60.7322 66.1339 60.4781C66.388 60.224 66.5174 60.2656 66.5174 59.7944C66.5174 59.3278 66.984 58.8981 67.2011 58.6856C67.4136 58.4731 68.2683 57.9603 68.1805 57.5769C68.0973 57.1934 67.6677 57.4059 67.4136 57.4937C67.1595 57.5769 66.1801 58.4731 65.7505 58.7272C65.3255 58.9813 64.2999 59.3647 63.7917 59.3647C63.2789 59.3647 62.8123 59.2354 62.8123 59.2354C62.8123 59.2354 62.683 59.2354 63.1958 59.0644C63.7085 58.8935 64.0042 59.0229 64.4292 58.9351C64.8543 58.8519 65.0668 58.5932 65.0252 58.3807C64.9836 58.1682 64.4292 58.1682 64.2167 58.1682C64.0042 58.1682 62.7245 58.2098 62.2117 58.1266C61.699 58.0435 60.8489 58.8935 60.678 59.0644C60.5071 59.2354 59.6108 59.4895 59.1442 59.531C58.6776 59.5772 58.9779 62.3907 58.9779 62.3907Z" fill="#FF9F75"/>
<path d="M40.6372 61.9332C40.6372 61.9332 41.5288 64.876 45.2569 64.7605C48.9851 64.6496 58.2616 62.931 59.204 62.8664C59.204 62.8664 60.6269 61.0369 59.4304 58.958C59.4304 58.958 53.5125 59.0273 50.6759 58.7779C47.844 58.5376 39.108 56.9438 40.6372 61.9332Z" fill="#E1E8F2"/>
<path d="M20.9003 67.8225C20.9003 67.8225 19.3434 58.7678 18.3363 57.7284C17.1121 56.5041 15.0978 55.5432 13.0744 57.0354C11.0555 58.5276 10.8292 60.7913 11.3512 62.1772C11.8732 63.5631 17.0012 75.0802 18.5349 76.383C20.0687 77.6857 22.1753 77.2053 22.5819 74.7245C22.9976 72.2437 20.9003 67.8225 20.9003 67.8225Z" fill="#E1E8F2"/>
<path d="M36.6161 72.6451C36.6161 72.6451 37.8403 72.719 38.27 72.719C38.6996 72.719 42.0074 72.4326 42.5848 72.4326C43.1623 72.4326 43.1623 73.0794 43.1623 73.0794C43.1623 73.0794 43.7398 74.0126 43.7398 74.3729C43.7398 74.7333 43.7398 75.2368 43.883 75.5972C44.0262 75.9575 43.8091 76.2439 43.6659 76.5304C43.5226 76.8168 43.1623 76.96 42.802 77.1771C42.4416 77.3942 42.012 77.3942 41.7256 77.251C41.4391 77.1078 41.4391 77.0339 41.7995 76.8214C42.1598 76.6043 42.4462 76.3178 42.4462 76.3178C42.4462 76.3178 42.0166 76.7475 41.3698 76.8214C40.7231 76.8953 39.716 76.8953 39.1385 76.6043C38.561 76.3178 37.5585 75.8143 37.5585 75.8143L36.4082 75.6711L36.6161 72.6451Z" fill="#FF9F75"/>
<path d="M18.2983 75.1636C18.2983 75.1636 19.19 78.1064 22.9181 77.9909C26.6463 77.8801 35.9227 76.1615 36.8652 76.0968C36.8652 76.0968 38.2881 74.2674 37.0915 72.1885C37.0915 72.1885 31.1736 72.2578 28.3371 72.0083C25.5006 71.7681 16.7646 70.1743 18.2983 75.1636Z" fill="#E1E8F2"/>
<defs>
<linearGradient id="paint0_linear_223_1956" x1="80.5239" y1="93.8114" x2="83.5577" y2="117.159" gradientUnits="userSpaceOnUse">
<stop stop-color="#C6E6FF"/>
<stop offset="1" stop-color="#8D9FFF"/>
</linearGradient>
<linearGradient id="paint1_linear_223_1956" x1="78.6271" y1="134.796" x2="87.2829" y2="115.407" gradientUnits="userSpaceOnUse">
<stop stop-color="#1AE5FF"/>
<stop offset="1" stop-color="#EAEEEE"/>
</linearGradient>
<linearGradient id="paint2_linear_223_1956" x1="128.514" y1="88.3376" x2="114.985" y2="-12.2077" gradientUnits="userSpaceOnUse">
<stop stop-color="#1AE5FF"/>
<stop offset="0.2589" stop-color="#64E8F9"/>
<stop offset="0.7043" stop-color="#EAEEEE"/>
</linearGradient>
<linearGradient id="paint3_linear_223_1956" x1="154.813" y1="60.4709" x2="149.398" y2="60.4709" gradientUnits="userSpaceOnUse">
<stop stop-color="#5155D4"/>
<stop offset="1" stop-color="#45F7FF"/>
</linearGradient>
</defs>
</svg>
